<svg width="78" height="99" viewBox="0 0 78 99" fill="none" xmlns="http://www.w3.org/2000/svg">
<path d="M77.1941 86.0309H0.805664V98.275H77.1941V86.0309Z" fill="#00BAB6"/>
<path d="M78 98.9999H0V85.1448H78V98.9999ZM1.61157 97.3889H76.3884V86.7558H1.61157V97.3889Z" fill="black"/>
<path d="M71.4731 86.8365H6.84912V36.0073H8.46069V85.2254H69.8615V36.6517H71.4731V86.8365Z" fill="black"/>
<path d="M75.26 40.035L38.7579 12.6469L2.17529 40.035V28.3548L38.7579 0.966675L75.26 28.3548V40.035Z" fill="#00BAB6"/>
<path d="M76.0659 41.6461L38.7581 13.6135L1.36963 41.6461V27.952L38.7581 0L76.1465 27.952V41.6461H76.0659ZM38.7581 11.5997L74.5349 38.4239V28.7575L38.7581 2.01383L2.9812 28.7575V38.3434L38.7581 11.5997Z" fill="black"/>
<path d="M62.7708 86.8365H44.3184V60.7372H62.6903V86.8365H62.7708ZM46.0105 85.1448H60.9981V62.4288H46.0105V85.1448Z" fill="black"/>
<path d="M34.6485 90.3809H17.9688V97.7112H34.6485V90.3809Z" fill="white"/>
<path d="M35.0515 98.1945H17.5659V90.0586H35.0515V98.1945ZM18.3717 97.3889H34.2457V90.8641H18.3717V97.3889Z" fill="black"/>
<path d="M65.1073 20.2189H63.4957V3.38328H57.8552V14.7413H56.2437V1.77222H65.1073V20.2189Z" fill="black"/>
<path d="M33.6819 48.7348H19.0972V33.1074H33.6819V48.7348ZM20.1447 47.607H32.5538V34.1546H20.1447V47.607Z" fill="black"/>
<path d="M26.9938 33.5907H25.8657V48.1708H26.9938V33.5907Z" fill="black"/>
<path d="M33.2789 40.3572H19.5V41.4849H33.2789V40.3572Z" fill="black"/>
<path d="M33.6819 72.9813H19.0972V57.2734H33.6819V72.9813ZM20.1447 71.8536H32.5538V58.4012H20.1447V71.8536Z" fill="black"/>
<path d="M26.9938 57.8373H25.8657V72.4174H26.9938V57.8373Z" fill="black"/>
<path d="M33.2789 64.6038H19.5V65.7315H33.2789V64.6038Z" fill="black"/>
<path d="M59.3865 48.7348H44.8018V33.1074H59.3865V48.7348ZM45.9299 47.607H58.3389V34.1546H45.9299V47.607Z" fill="black"/>
<path d="M52.6984 33.5907H51.5703V48.1708H52.6984V33.5907Z" fill="black"/>
<path d="M58.9835 40.3572H45.2046V41.4849H58.9835V40.3572Z" fill="black"/>
<path d="M61.8843 88.3669H45.2046V90.0586H61.8843V88.3669Z" fill="black"/>
<path d="M61.8843 91.2668H45.2046V92.9585H61.8843V91.2668Z" fill="black"/>
<path d="M61.8843 94.1667H45.2046V95.8584H61.8843V94.1667Z" fill="black"/>
</svg>
