<svg width="81" height="81" viewBox="0 0 81 81" fill="none" xmlns="http://www.w3.org/2000/svg">
<path d="M75.9375 80.9999H5.9353V30.9099H7.68099V79.2393H74.1918V31.6142H75.9375V80.9999Z" fill="black"/>
<path d="M80.0398 43.7518L40.5 13.821L0.872803 43.7518V30.9872L40.5 1.0564L80.0398 30.9872V43.7518Z" fill="#00BAB6"/>
<path d="M80.9127 45.5124L40.5 14.8773L0 45.5124V30.547L40.5 0L81 30.547V45.5124H80.9127ZM40.5 12.6766L79.2543 41.9031V31.4273L40.5 2.20079L1.74569 31.4273V41.9031L40.5 12.6766Z" fill="black"/>
<path d="M66.5108 80.9999H46.5227V52.4777H66.4236V80.9999H66.5108ZM48.443 79.1513H64.5906V54.3263H48.443V79.1513Z" fill="black"/>
<path d="M69.042 22.1593H67.2963V3.76063H61.1864V16.1731H59.4407V2H69.042V22.1593Z" fill="black"/>
<path d="M81 79.2393H0.872803V80.9999H81V79.2393Z" fill="black"/>
<path d="M48.8793 42.0781H33.0808V25H48.8793V42.0781ZM34.2155 40.9337H47.6573V26.1444H34.2155V40.9337Z" fill="black"/>
<path d="M41.5474 25.5282H40.3254V41.4619H41.5474V25.5282Z" fill="black"/>
<path d="M48.443 32.9229H33.5173V34.1553H48.443V32.9229Z" fill="black"/>
<path d="M33.8664 64.7141H18.0679V47.548H33.8664V64.7141ZM19.2899 63.4817H32.7317V48.7804H19.2899V63.4817Z" fill="black"/>
<path d="M26.6216 48.1642H25.3997V64.0979H26.6216V48.1642Z" fill="black"/>
<path d="M33.43 55.5588H18.5044V56.7913H33.43V55.5588Z" fill="black"/>
</svg>
