<svg width="80" height="92" viewBox="0 0 80 92" fill="none" xmlns="http://www.w3.org/2000/svg">
<path d="M75.0002 92H5.8623V38.1484H7.58644V90.2932H73.2761V38.8312H75.0002V92Z" fill="black"/>
<path d="M79.052 42.4156L40.0002 13.3989L0.862305 42.4156V30.0409L40.0002 1.02417L79.052 30.0409V42.4156Z" fill="#00BAB6"/>
<path d="M79.9138 44.1224L40 14.423L0 44.1224V29.6141L40 0L80 29.6141V44.1224H79.9138ZM1.72414 30.4675V40.6234L40 12.2041L78.2759 40.538V30.4675L40 2.13358L1.72414 30.4675Z" fill="black"/>
<path d="M65.6896 92H45.9482V64.3488H65.6034V92H65.6896ZM47.8448 90.2078H63.7931V66.141H47.8448V90.2078Z" fill="black"/>
<path d="M68.1898 21.4212H66.4656V3.58443H60.4312V15.6178H58.707V1.87756H68.1898V21.4212Z" fill="black"/>
<path d="M80.0002 90.2931H0.862305V92H80.0002V90.2931Z" fill="black"/>
<path d="M34.5688 51.6326H18.9653V35.076H34.5688V51.6326ZM20.1722 50.4378H33.4481V36.1855H20.1722V50.4378Z" fill="black"/>
<path d="M27.4134 35.5881H26.2065V51.0353H27.4134V35.5881Z" fill="black"/>
<path d="M34.1379 42.757H19.3965V43.9518H34.1379V42.757Z" fill="black"/>
<path d="M34.5688 77.321H18.9653V60.6791H34.5688V77.321ZM20.1722 76.1262H33.4481V61.8739H20.1722V76.1262Z" fill="black"/>
<path d="M27.4134 61.2765H26.2065V76.7236H27.4134V61.2765Z" fill="black"/>
<path d="M34.1379 68.4453H19.3965V69.6401H34.1379V68.4453Z" fill="black"/>
<path d="M62.0688 51.6326H46.4653V35.076H62.0688V51.6326ZM47.6722 50.4378H60.9481V36.1855H47.6722V50.4378Z" fill="black"/>
<path d="M54.9134 35.5881H53.7065V51.0353H54.9134V35.5881Z" fill="black"/>
<path d="M61.6379 42.757H46.8965V43.9518H61.6379V42.757Z" fill="black"/>
</svg>
