<svg width="75" height="69" viewBox="0 0 75 69" fill="none" xmlns="http://www.w3.org/2000/svg">
<path d="M70.3124 69H5.49561V36.4189H7.11198V67.3669H68.696V37.0722H70.3124V69Z" fill="black"/>
<path d="M74.1109 40.5834L37.4999 12.8201L0.808105 40.5834V28.7432L37.4999 0.979858L74.1109 28.7432V40.5834Z" fill="#00BAB6"/>
<path d="M74.9192 42.2166L37.5 13.8L0 42.2166V28.3349L37.5 0L75 28.3349V42.2166H74.9192ZM37.5 11.7586L73.3836 38.9503V29.1515L37.5 2.04142L1.61638 29.1515V38.8686L37.5 11.7586Z" fill="black"/>
<path d="M61.584 69H43.0764V42.5432H61.5031V69H61.584ZM44.8544 67.2852H59.8059V44.258H44.8544V67.2852Z" fill="black"/>
<path d="M63.9277 20.4959H62.3113V3.42964H56.654V14.9433H55.0376V1.79651H63.9277V20.4959Z" fill="black"/>
<path d="M74.9999 67.3668H0.808105V69H74.9999V67.3668Z" fill="black"/>
<path d="M32.3277 53.8119H17.6995V37.9705H32.3277V53.8119ZM18.8309 52.7503H31.277V39.1137H18.8309V52.7503Z" fill="black"/>
<path d="M25.6197 38.5421H24.4883V53.322H25.6197V38.5421Z" fill="black"/>
<path d="M31.9236 45.3196H18.1035V46.4628H31.9236V45.3196Z" fill="black"/>
</svg>
